<mxfile host="65bd71144e">
    <diagram id="XD2Mp5vmrm1WfKSr-2Hc" name="第 1 页">
        <mxGraphModel dx="424" dy="515" grid="1" gridSize="10" guides="1" tooltips="1" connect="1" arrows="1" fold="1" page="1" pageScale="1" pageWidth="827" pageHeight="1169" math="0" shadow="0">
            <root>
                <mxCell id="0"/>
                <mxCell id="1" parent="0"/>
                <mxCell id="5" value="" style="edgeStyle=orthogonalEdgeStyle;rounded=1;orthogonalLoop=1;jettySize=auto;html=1;entryX=0;entryY=0.5;entryDx=0;entryDy=0;" parent="1" source="3" target="4" edge="1">
                    <mxGeometry relative="1" as="geometry">
                        <Array as="points">
                            <mxPoint x="320" y="425"/>
                            <mxPoint x="320" y="385"/>
                        </Array>
                    </mxGeometry>
                </mxCell>
                <mxCell id="3" value="PX4" style="rounded=1;whiteSpace=wrap;html=1;" parent="1" vertex="1">
                    <mxGeometry x="200" y="405" width="80" height="40" as="geometry"/>
                </mxCell>
                <mxCell id="4" value="Autopolot" style="rounded=1;whiteSpace=wrap;html=1;" parent="1" vertex="1">
                    <mxGeometry x="360" y="365" width="80" height="40" as="geometry"/>
                </mxCell>
                <mxCell id="6" value="Avoidance" style="rounded=1;whiteSpace=wrap;html=1;" parent="1" vertex="1">
                    <mxGeometry x="360" y="445" width="80" height="40" as="geometry"/>
                </mxCell>
                <mxCell id="7" value="" style="edgeStyle=orthogonalEdgeStyle;rounded=1;orthogonalLoop=1;jettySize=auto;html=1;" parent="1" source="3" target="6" edge="1">
                    <mxGeometry relative="1" as="geometry">
                        <mxPoint x="300" y="435.02857142857135" as="sourcePoint"/>
                        <mxPoint x="370" y="375.02857142857135" as="targetPoint"/>
                        <Array as="points">
                            <mxPoint x="320" y="425"/>
                            <mxPoint x="320" y="465"/>
                        </Array>
                    </mxGeometry>
                </mxCell>
                <mxCell id="9" value="NUC10" style="rounded=1;whiteSpace=wrap;html=1;" parent="1" vertex="1">
                    <mxGeometry x="30" y="485" width="90" height="40" as="geometry"/>
                </mxCell>
                <mxCell id="14" value="" style="edgeStyle=orthogonalEdgeStyle;rounded=1;orthogonalLoop=1;jettySize=auto;html=1;entryX=0;entryY=0.5;entryDx=0;entryDy=0;exitX=1;exitY=0.5;exitDx=0;exitDy=0;" parent="1" source="9" target="3" edge="1">
                    <mxGeometry relative="1" as="geometry">
                        <mxPoint x="300" y="595" as="sourcePoint"/>
                        <mxPoint x="360" y="555" as="targetPoint"/>
                        <Array as="points">
                            <mxPoint x="160" y="505"/>
                            <mxPoint x="160" y="425"/>
                        </Array>
                    </mxGeometry>
                </mxCell>
                <mxCell id="15" value="SITL Simulator" style="rounded=1;whiteSpace=wrap;html=1;" vertex="1" parent="1">
                    <mxGeometry x="520" y="325" width="90" height="40" as="geometry"/>
                </mxCell>
                <mxCell id="17" value="" style="edgeStyle=orthogonalEdgeStyle;rounded=1;orthogonalLoop=1;jettySize=auto;html=1;entryX=0;entryY=0.5;entryDx=0;entryDy=0;exitX=1;exitY=0.5;exitDx=0;exitDy=0;" edge="1" parent="1" source="4" target="15">
                    <mxGeometry relative="1" as="geometry">
                        <Array as="points">
                            <mxPoint x="480" y="385"/>
                            <mxPoint x="480" y="345"/>
                        </Array>
                        <mxPoint x="300" y="435" as="sourcePoint"/>
                        <mxPoint x="360" y="395" as="targetPoint"/>
                    </mxGeometry>
                </mxCell>
            </root>
        </mxGraphModel>
    </diagram>
</mxfile>